<?xml version="1.0" encoding="UTF-8"?>
<!DOCTYPE svg PUBLIC "-//W3C//DTD SVG 1.1//EN"
 "http://www.w3.org/Graphics/SVG/1.1/DTD/svg11.dtd">
<svg xmlns="http://www.w3.org/2000/svg" version="1.1"
     width="217.0mm" height="5.5mm"
     shape-rendering="crispEdges">
<text x="129.0mm" y="3.8mm" font-size="3mm">cm_8875344879699870350</text><rect x="0.0mm" y="0.0mm" width="0.5mm" height="5mm" fill="#723959" stroke="none" /><rect x="0.5mm" y="0.0mm" width="0.5mm" height="5mm" fill="#723A5A" stroke="none" /><rect x="1.0mm" y="0.0mm" width="0.5mm" height="5mm" fill="#713A5C" stroke="none" /><rect x="1.5mm" y="0.0mm" width="0.5mm" height="5mm" fill="#703A5D" stroke="none" /><rect x="2.0mm" y="0.0mm" width="0.5mm" height="5mm" fill="#6F3B5F" stroke="none" /><rect x="2.5mm" y="0.0mm" width="0.5mm" height="5mm" fill="#6F3B60" stroke="none" /><rect x="3.0mm" y="0.0mm" width="0.5mm" height="5mm" fill="#6E3C62" stroke="none" /><rect x="3.5mm" y="0.0mm" width="0.5mm" height="5mm" fill="#6D3D64" stroke="none" /><rect x="4.0mm" y="0.0mm" width="0.5mm" height="5mm" fill="#6C3D65" stroke="none" /><rect x="4.5mm" y="0.0mm" width="0.5mm" height="5mm" fill="#6C3E67" stroke="none" /><rect x="5.0mm" y="0.0mm" width="0.5mm" height="5mm" fill="#6B3F69" stroke="none" /><rect x="5.5mm" y="0.0mm" width="0.5mm" height="5mm" fill="#6A3F6B" stroke="none" /><rect x="6.0mm" y="0.0mm" width="0.5mm" height="5mm" fill="#69406C" stroke="none" /><rect x="6.5mm" y="0.0mm" width="0.5mm" height="5mm" fill="#68416E" stroke="none" /><rect x="7.0mm" y="0.0mm" width="0.5mm" height="5mm" fill="#684270" stroke="none" /><rect x="7.5mm" y="0.0mm" width="0.5mm" height="5mm" fill="#674372" stroke="none" /><rect x="8.0mm" y="0.0mm" width="0.5mm" height="5mm" fill="#664474" stroke="none" /><rect x="8.5mm" y="0.0mm" width="0.5mm" height="5mm" fill="#654576" stroke="none" /><rect x="9.0mm" y="0.0mm" width="0.5mm" height="5mm" fill="#644677" stroke="none" /><rect x="9.5mm" y="0.0mm" width="0.5mm" height="5mm" fill="#634779" stroke="none" /><rect x="10.0mm" y="0.0mm" width="0.5mm" height="5mm" fill="#63487B" stroke="none" /><rect x="10.5mm" y="0.0mm" width="0.5mm" height="5mm" fill="#62497D" stroke="none" /><rect x="11.0mm" y="0.0mm" width="0.5mm" height="5mm" fill="#614B7F" stroke="none" /><rect x="11.5mm" y="0.0mm" width="0.5mm" height="5mm" fill="#604C81" stroke="none" /><rect x="12.0mm" y="0.0mm" width="0.5mm" height="5mm" fill="#5F4D83" stroke="none" /><rect x="12.5mm" y="0.0mm" width="0.5mm" height="5mm" fill="#5E4F85" stroke="none" /><rect x="13.0mm" y="0.0mm" width="0.5mm" height="5mm" fill="#5D5087" stroke="none" /><rect x="13.5mm" y="0.0mm" width="0.5mm" height="5mm" fill="#5C5289" stroke="none" /><rect x="14.0mm" y="0.0mm" width="0.5mm" height="5mm" fill="#5C538B" stroke="none" /><rect x="14.5mm" y="0.0mm" width="0.5mm" height="5mm" fill="#5B558D" stroke="none" /><rect x="15.0mm" y="0.0mm" width="0.5mm" height="5mm" fill="#5A568F" stroke="none" /><rect x="15.5mm" y="0.0mm" width="0.5mm" height="5mm" fill="#595891" stroke="none" /><rect x="16.0mm" y="0.0mm" width="0.5mm" height="5mm" fill="#585993" stroke="none" /><rect x="16.5mm" y="0.0mm" width="0.5mm" height="5mm" fill="#575B94" stroke="none" /><rect x="17.0mm" y="0.0mm" width="0.5mm" height="5mm" fill="#575D96" stroke="none" /><rect x="17.5mm" y="0.0mm" width="0.5mm" height="5mm" fill="#565F98" stroke="none" /><rect x="18.0mm" y="0.0mm" width="0.5mm" height="5mm" fill="#55609A" stroke="none" /><rect x="18.5mm" y="0.0mm" width="0.5mm" height="5mm" fill="#54629C" stroke="none" /><rect x="19.0mm" y="0.0mm" width="0.5mm" height="5mm" fill="#54649E" stroke="none" /><rect x="19.5mm" y="0.0mm" width="0.5mm" height="5mm" fill="#53669F" stroke="none" /><rect x="20.0mm" y="0.0mm" width="0.5mm" height="5mm" fill="#5267A1" stroke="none" /><rect x="20.5mm" y="0.0mm" width="0.5mm" height="5mm" fill="#5269A3" stroke="none" /><rect x="21.0mm" y="0.0mm" width="0.5mm" height="5mm" fill="#516BA4" stroke="none" /><rect x="21.5mm" y="0.0mm" width="0.5mm" height="5mm" fill="#516DA6" stroke="none" /><rect x="22.0mm" y="0.0mm" width="0.5mm" height="5mm" fill="#506FA8" stroke="none" /><rect x="22.5mm" y="0.0mm" width="0.5mm" height="5mm" fill="#5071A9" stroke="none" /><rect x="23.0mm" y="0.0mm" width="0.5mm" height="5mm" fill="#4F73AB" stroke="none" /><rect x="23.5mm" y="0.0mm" width="0.5mm" height="5mm" fill="#4F75AC" stroke="none" /><rect x="24.0mm" y="0.0mm" width="0.5mm" height="5mm" fill="#4F76AE" stroke="none" /><rect x="24.5mm" y="0.0mm" width="0.5mm" height="5mm" fill="#4F78AF" stroke="none" /><rect x="25.0mm" y="0.0mm" width="0.5mm" height="5mm" fill="#4E7AB0" stroke="none" /><rect x="25.5mm" y="0.0mm" width="0.5mm" height="5mm" fill="#4E7CB2" stroke="none" /><rect x="26.0mm" y="0.0mm" width="0.5mm" height="5mm" fill="#4E7EB3" stroke="none" /><rect x="26.5mm" y="0.0mm" width="0.5mm" height="5mm" fill="#4E80B4" stroke="none" /><rect x="27.0mm" y="0.0mm" width="0.5mm" height="5mm" fill="#4F82B6" stroke="none" /><rect x="27.5mm" y="0.0mm" width="0.5mm" height="5mm" fill="#4F84B7" stroke="none" /><rect x="28.0mm" y="0.0mm" width="0.5mm" height="5mm" fill="#4F86B8" stroke="none" /><rect x="28.5mm" y="0.0mm" width="0.5mm" height="5mm" fill="#4F88B9" stroke="none" /><rect x="29.0mm" y="0.0mm" width="0.5mm" height="5mm" fill="#508ABA" stroke="none" /><rect x="29.5mm" y="0.0mm" width="0.5mm" height="5mm" fill="#508BBB" stroke="none" /><rect x="30.0mm" y="0.0mm" width="0.5mm" height="5mm" fill="#518DBC" stroke="none" /><rect x="30.5mm" y="0.0mm" width="0.5mm" height="5mm" fill="#528FBD" stroke="none" /><rect x="31.0mm" y="0.0mm" width="0.5mm" height="5mm" fill="#5291BE" stroke="none" /><rect x="31.5mm" y="0.0mm" width="0.5mm" height="5mm" fill="#5393BF" stroke="none" /><rect x="32.0mm" y="0.0mm" width="0.5mm" height="5mm" fill="#5495C0" stroke="none" /><rect x="32.5mm" y="0.0mm" width="0.5mm" height="5mm" fill="#5597C1" stroke="none" /><rect x="33.0mm" y="0.0mm" width="0.5mm" height="5mm" fill="#5699C2" stroke="none" /><rect x="33.5mm" y="0.0mm" width="0.5mm" height="5mm" fill="#579BC3" stroke="none" /><rect x="34.0mm" y="0.0mm" width="0.5mm" height="5mm" fill="#589CC4" stroke="none" /><rect x="34.5mm" y="0.0mm" width="0.5mm" height="5mm" fill="#599EC4" stroke="none" /><rect x="35.0mm" y="0.0mm" width="0.5mm" height="5mm" fill="#5AA0C5" stroke="none" /><rect x="35.5mm" y="0.0mm" width="0.5mm" height="5mm" fill="#5CA2C6" stroke="none" /><rect x="36.0mm" y="0.0mm" width="0.5mm" height="5mm" fill="#5DA4C7" stroke="none" /><rect x="36.5mm" y="0.0mm" width="0.5mm" height="5mm" fill="#5FA6C7" stroke="none" /><rect x="37.0mm" y="0.0mm" width="0.5mm" height="5mm" fill="#60A8C8" stroke="none" /><rect x="37.5mm" y="0.0mm" width="0.5mm" height="5mm" fill="#62A9C9" stroke="none" /><rect x="38.0mm" y="0.0mm" width="0.5mm" height="5mm" fill="#63ABC9" stroke="none" /><rect x="38.5mm" y="0.0mm" width="0.5mm" height="5mm" fill="#65ADCA" stroke="none" /><rect x="39.0mm" y="0.0mm" width="0.5mm" height="5mm" fill="#67AFCA" stroke="none" /><rect x="39.5mm" y="0.0mm" width="0.5mm" height="5mm" fill="#68B1CB" stroke="none" /><rect x="40.0mm" y="0.0mm" width="0.5mm" height="5mm" fill="#6AB2CB" stroke="none" /><rect x="40.5mm" y="0.0mm" width="0.5mm" height="5mm" fill="#6CB4CC" stroke="none" /><rect x="41.0mm" y="0.0mm" width="0.5mm" height="5mm" fill="#6EB6CC" stroke="none" /><rect x="41.5mm" y="0.0mm" width="0.5mm" height="5mm" fill="#70B8CD" stroke="none" /><rect x="42.0mm" y="0.0mm" width="0.5mm" height="5mm" fill="#72B9CD" stroke="none" /><rect x="42.5mm" y="0.0mm" width="0.5mm" height="5mm" fill="#74BBCD" stroke="none" /><rect x="43.0mm" y="0.0mm" width="0.5mm" height="5mm" fill="#76BDCE" stroke="none" /><rect x="43.5mm" y="0.0mm" width="0.5mm" height="5mm" fill="#78BECE" stroke="none" /><rect x="44.0mm" y="0.0mm" width="0.5mm" height="5mm" fill="#7BC0CE" stroke="none" /><rect x="44.5mm" y="0.0mm" width="0.5mm" height="5mm" fill="#7DC2CE" stroke="none" /><rect x="45.0mm" y="0.0mm" width="0.5mm" height="5mm" fill="#7FC3CF" stroke="none" /><rect x="45.5mm" y="0.0mm" width="0.5mm" height="5mm" fill="#81C5CF" stroke="none" /><rect x="46.0mm" y="0.0mm" width="0.5mm" height="5mm" fill="#84C6CF" stroke="none" /><rect x="46.5mm" y="0.0mm" width="0.5mm" height="5mm" fill="#86C8CF" stroke="none" /><rect x="47.0mm" y="0.0mm" width="0.5mm" height="5mm" fill="#88C9CF" stroke="none" /><rect x="47.5mm" y="0.0mm" width="0.5mm" height="5mm" fill="#8BCBCF" stroke="none" /><rect x="48.0mm" y="0.0mm" width="0.5mm" height="5mm" fill="#8DCCCF" stroke="none" /><rect x="48.5mm" y="0.0mm" width="0.5mm" height="5mm" fill="#8FCECF" stroke="none" /><rect x="49.0mm" y="0.0mm" width="0.5mm" height="5mm" fill="#92CFCE" stroke="none" /><rect x="49.5mm" y="0.0mm" width="0.5mm" height="5mm" fill="#94D0CE" stroke="none" /><rect x="50.0mm" y="0.0mm" width="0.5mm" height="5mm" fill="#96D1CE" stroke="none" /><rect x="50.5mm" y="0.0mm" width="0.5mm" height="5mm" fill="#99D3CE" stroke="none" /><rect x="51.0mm" y="0.0mm" width="0.5mm" height="5mm" fill="#9BD4CD" stroke="none" /><rect x="51.5mm" y="0.0mm" width="0.5mm" height="5mm" fill="#9DD5CD" stroke="none" /><rect x="52.0mm" y="0.0mm" width="0.5mm" height="5mm" fill="#A0D6CC" stroke="none" /><rect x="52.5mm" y="0.0mm" width="0.5mm" height="5mm" fill="#A2D7CC" stroke="none" /><rect x="53.0mm" y="0.0mm" width="0.5mm" height="5mm" fill="#A4D8CB" stroke="none" /><rect x="53.5mm" y="0.0mm" width="0.5mm" height="5mm" fill="#A7D9CB" stroke="none" /><rect x="54.0mm" y="0.0mm" width="0.5mm" height="5mm" fill="#A9DACA" stroke="none" /><rect x="54.5mm" y="0.0mm" width="0.5mm" height="5mm" fill="#ABDBC9" stroke="none" /><rect x="55.0mm" y="0.0mm" width="0.5mm" height="5mm" fill="#ADDCC8" stroke="none" /><rect x="55.5mm" y="0.0mm" width="0.5mm" height="5mm" fill="#AFDCC8" stroke="none" /><rect x="56.0mm" y="0.0mm" width="0.5mm" height="5mm" fill="#B1DDC7" stroke="none" /><rect x="56.5mm" y="0.0mm" width="0.5mm" height="5mm" fill="#B4DEC6" stroke="none" /><rect x="57.0mm" y="0.0mm" width="0.5mm" height="5mm" fill="#B6DEC5" stroke="none" /><rect x="57.5mm" y="0.0mm" width="0.5mm" height="5mm" fill="#B8DFC4" stroke="none" /><rect x="58.0mm" y="0.0mm" width="0.5mm" height="5mm" fill="#B9DFC3" stroke="none" /><rect x="58.5mm" y="0.0mm" width="0.5mm" height="5mm" fill="#BBE0C1" stroke="none" /><rect x="59.0mm" y="0.0mm" width="0.5mm" height="5mm" fill="#BDE0C0" stroke="none" /><rect x="59.5mm" y="0.0mm" width="0.5mm" height="5mm" fill="#BFE1BF" stroke="none" /><rect x="60.0mm" y="0.0mm" width="0.5mm" height="5mm" fill="#C1E1BE" stroke="none" /><rect x="60.5mm" y="0.0mm" width="0.5mm" height="5mm" fill="#C2E1BC" stroke="none" /><rect x="61.0mm" y="0.0mm" width="0.5mm" height="5mm" fill="#C4E1BB" stroke="none" /><rect x="61.5mm" y="0.0mm" width="0.5mm" height="5mm" fill="#C5E1B9" stroke="none" /><rect x="62.0mm" y="0.0mm" width="0.5mm" height="5mm" fill="#C7E1B8" stroke="none" /><rect x="62.5mm" y="0.0mm" width="0.5mm" height="5mm" fill="#C8E1B6" stroke="none" /><rect x="63.0mm" y="0.0mm" width="0.5mm" height="5mm" fill="#CAE1B5" stroke="none" /><rect x="63.5mm" y="0.0mm" width="0.5mm" height="5mm" fill="#CBE1B3" stroke="none" /><rect x="64.0mm" y="0.0mm" width="0.5mm" height="5mm" fill="#CCE1B1" stroke="none" /><rect x="64.5mm" y="0.0mm" width="0.5mm" height="5mm" fill="#CDE1AF" stroke="none" /><rect x="65.0mm" y="0.0mm" width="0.5mm" height="5mm" fill="#CEE1AD" stroke="none" /><rect x="65.5mm" y="0.0mm" width="0.5mm" height="5mm" fill="#CFE0AB" stroke="none" /><rect x="66.0mm" y="0.0mm" width="0.5mm" height="5mm" fill="#D0E0A9" stroke="none" /><rect x="66.5mm" y="0.0mm" width="0.5mm" height="5mm" fill="#D1DFA7" stroke="none" /><rect x="67.0mm" y="0.0mm" width="0.5mm" height="5mm" fill="#D2DFA5" stroke="none" /><rect x="67.5mm" y="0.0mm" width="0.5mm" height="5mm" fill="#D3DEA3" stroke="none" /><rect x="68.0mm" y="0.0mm" width="0.5mm" height="5mm" fill="#D3DDA1" stroke="none" /><rect x="68.5mm" y="0.0mm" width="0.5mm" height="5mm" fill="#D4DD9F" stroke="none" /><rect x="69.0mm" y="0.0mm" width="0.5mm" height="5mm" fill="#D4DC9C" stroke="none" /><rect x="69.5mm" y="0.0mm" width="0.5mm" height="5mm" fill="#D5DB9A" stroke="none" /><rect x="70.0mm" y="0.0mm" width="0.5mm" height="5mm" fill="#D5DA98" stroke="none" /><rect x="70.5mm" y="0.0mm" width="0.5mm" height="5mm" fill="#D5D995" stroke="none" /><rect x="71.0mm" y="0.0mm" width="0.5mm" height="5mm" fill="#D6D893" stroke="none" /><rect x="71.5mm" y="0.0mm" width="0.5mm" height="5mm" fill="#D6D790" stroke="none" /><rect x="72.0mm" y="0.0mm" width="0.5mm" height="5mm" fill="#D6D58E" stroke="none" /><rect x="72.5mm" y="0.0mm" width="0.5mm" height="5mm" fill="#D6D48B" stroke="none" /><rect x="73.0mm" y="0.0mm" width="0.5mm" height="5mm" fill="#D6D388" stroke="none" /><rect x="73.5mm" y="0.0mm" width="0.5mm" height="5mm" fill="#D5D186" stroke="none" /><rect x="74.0mm" y="0.0mm" width="0.5mm" height="5mm" fill="#D5D083" stroke="none" /><rect x="74.5mm" y="0.0mm" width="0.5mm" height="5mm" fill="#D5CE81" stroke="none" /><rect x="75.0mm" y="0.0mm" width="0.5mm" height="5mm" fill="#D4CD7E" stroke="none" /><rect x="75.5mm" y="0.0mm" width="0.5mm" height="5mm" fill="#D4CB7B" stroke="none" /><rect x="76.0mm" y="0.0mm" width="0.5mm" height="5mm" fill="#D4C978" stroke="none" /><rect x="76.5mm" y="0.0mm" width="0.5mm" height="5mm" fill="#D3C876" stroke="none" /><rect x="77.0mm" y="0.0mm" width="0.5mm" height="5mm" fill="#D2C673" stroke="none" /><rect x="77.5mm" y="0.0mm" width="0.5mm" height="5mm" fill="#D2C470" stroke="none" /><rect x="78.0mm" y="0.0mm" width="0.5mm" height="5mm" fill="#D1C26E" stroke="none" /><rect x="78.5mm" y="0.0mm" width="0.5mm" height="5mm" fill="#D0C06B" stroke="none" /><rect x="79.0mm" y="0.0mm" width="0.5mm" height="5mm" fill="#CFBE68" stroke="none" /><rect x="79.5mm" y="0.0mm" width="0.5mm" height="5mm" fill="#CFBC66" stroke="none" /><rect x="80.0mm" y="0.0mm" width="0.5mm" height="5mm" fill="#CEBA63" stroke="none" /><rect x="80.5mm" y="0.0mm" width="0.5mm" height="5mm" fill="#CDB761" stroke="none" /><rect x="81.0mm" y="0.0mm" width="0.5mm" height="5mm" fill="#CCB55E" stroke="none" /><rect x="81.5mm" y="0.0mm" width="0.5mm" height="5mm" fill="#CBB35C" stroke="none" /><rect x="82.0mm" y="0.0mm" width="0.5mm" height="5mm" fill="#CAB159" stroke="none" /><rect x="82.5mm" y="0.0mm" width="0.5mm" height="5mm" fill="#C9AF57" stroke="none" /><rect x="83.0mm" y="0.0mm" width="0.5mm" height="5mm" fill="#C8AC54" stroke="none" /><rect x="83.5mm" y="0.0mm" width="0.5mm" height="5mm" fill="#C6AA52" stroke="none" /><rect x="84.0mm" y="0.0mm" width="0.5mm" height="5mm" fill="#C5A850" stroke="none" /><rect x="84.5mm" y="0.0mm" width="0.5mm" height="5mm" fill="#C4A54E" stroke="none" /><rect x="85.0mm" y="0.0mm" width="0.5mm" height="5mm" fill="#C3A34B" stroke="none" /><rect x="85.5mm" y="0.0mm" width="0.5mm" height="5mm" fill="#C2A149" stroke="none" /><rect x="86.0mm" y="0.0mm" width="0.5mm" height="5mm" fill="#C19F47" stroke="none" /><rect x="86.5mm" y="0.0mm" width="0.5mm" height="5mm" fill="#BF9C46" stroke="none" /><rect x="87.0mm" y="0.0mm" width="0.5mm" height="5mm" fill="#BE9A44" stroke="none" /><rect x="87.5mm" y="0.0mm" width="0.5mm" height="5mm" fill="#BD9842" stroke="none" /><rect x="88.0mm" y="0.0mm" width="0.5mm" height="5mm" fill="#BC9540" stroke="none" /><rect x="88.5mm" y="0.0mm" width="0.5mm" height="5mm" fill="#BB933F" stroke="none" /><rect x="89.0mm" y="0.0mm" width="0.5mm" height="5mm" fill="#B9913D" stroke="none" /><rect x="89.5mm" y="0.0mm" width="0.5mm" height="5mm" fill="#B88E3B" stroke="none" /><rect x="90.0mm" y="0.0mm" width="0.5mm" height="5mm" fill="#B78C3A" stroke="none" /><rect x="90.5mm" y="0.0mm" width="0.5mm" height="5mm" fill="#B68A39" stroke="none" /><rect x="91.0mm" y="0.0mm" width="0.5mm" height="5mm" fill="#B58837" stroke="none" /><rect x="91.5mm" y="0.0mm" width="0.5mm" height="5mm" fill="#B38636" stroke="none" /><rect x="92.0mm" y="0.0mm" width="0.5mm" height="5mm" fill="#B28335" stroke="none" /><rect x="92.5mm" y="0.0mm" width="0.5mm" height="5mm" fill="#B18134" stroke="none" /><rect x="93.0mm" y="0.0mm" width="0.5mm" height="5mm" fill="#B07F33" stroke="none" /><rect x="93.5mm" y="0.0mm" width="0.5mm" height="5mm" fill="#AF7D32" stroke="none" /><rect x="94.0mm" y="0.0mm" width="0.5mm" height="5mm" fill="#AE7B31" stroke="none" /><rect x="94.5mm" y="0.0mm" width="0.5mm" height="5mm" fill="#AD7930" stroke="none" /><rect x="95.0mm" y="0.0mm" width="0.5mm" height="5mm" fill="#AB7730" stroke="none" /><rect x="95.5mm" y="0.0mm" width="0.5mm" height="5mm" fill="#AA752F" stroke="none" /><rect x="96.0mm" y="0.0mm" width="0.5mm" height="5mm" fill="#A9732E" stroke="none" /><rect x="96.5mm" y="0.0mm" width="0.5mm" height="5mm" fill="#A8712E" stroke="none" /><rect x="97.0mm" y="0.0mm" width="0.5mm" height="5mm" fill="#A76F2D" stroke="none" /><rect x="97.5mm" y="0.0mm" width="0.5mm" height="5mm" fill="#A66D2D" stroke="none" /><rect x="98.0mm" y="0.0mm" width="0.5mm" height="5mm" fill="#A56B2D" stroke="none" /><rect x="98.5mm" y="0.0mm" width="0.5mm" height="5mm" fill="#A4692C" stroke="none" /><rect x="99.0mm" y="0.0mm" width="0.5mm" height="5mm" fill="#A3672C" stroke="none" /><rect x="99.5mm" y="0.0mm" width="0.5mm" height="5mm" fill="#A2662C" stroke="none" /><rect x="100.0mm" y="0.0mm" width="0.5mm" height="5mm" fill="#A0642C" stroke="none" /><rect x="100.5mm" y="0.0mm" width="0.5mm" height="5mm" fill="#9F622B" stroke="none" /><rect x="101.0mm" y="0.0mm" width="0.5mm" height="5mm" fill="#9E602B" stroke="none" /><rect x="101.5mm" y="0.0mm" width="0.5mm" height="5mm" fill="#9D5F2B" stroke="none" /><rect x="102.0mm" y="0.0mm" width="0.5mm" height="5mm" fill="#9C5D2B" stroke="none" /><rect x="102.5mm" y="0.0mm" width="0.5mm" height="5mm" fill="#9B5B2C" stroke="none" /><rect x="103.0mm" y="0.0mm" width="0.5mm" height="5mm" fill="#9A5A2C" stroke="none" /><rect x="103.5mm" y="0.0mm" width="0.5mm" height="5mm" fill="#99582C" stroke="none" /><rect x="104.0mm" y="0.0mm" width="0.5mm" height="5mm" fill="#98572C" stroke="none" /><rect x="104.5mm" y="0.0mm" width="0.5mm" height="5mm" fill="#97552C" stroke="none" /><rect x="105.0mm" y="0.0mm" width="0.5mm" height="5mm" fill="#96542D" stroke="none" /><rect x="105.5mm" y="0.0mm" width="0.5mm" height="5mm" fill="#95522D" stroke="none" /><rect x="106.0mm" y="0.0mm" width="0.5mm" height="5mm" fill="#94512D" stroke="none" /><rect x="106.5mm" y="0.0mm" width="0.5mm" height="5mm" fill="#94502E" stroke="none" /><rect x="107.0mm" y="0.0mm" width="0.5mm" height="5mm" fill="#934E2E" stroke="none" /><rect x="107.5mm" y="0.0mm" width="0.5mm" height="5mm" fill="#924D2F" stroke="none" /><rect x="108.0mm" y="0.0mm" width="0.5mm" height="5mm" fill="#914C2F" stroke="none" /><rect x="108.5mm" y="0.0mm" width="0.5mm" height="5mm" fill="#904A30" stroke="none" /><rect x="109.0mm" y="0.0mm" width="0.5mm" height="5mm" fill="#8F4930" stroke="none" /><rect x="109.5mm" y="0.0mm" width="0.5mm" height="5mm" fill="#8E4831" stroke="none" /><rect x="110.0mm" y="0.0mm" width="0.5mm" height="5mm" fill="#8D4731" stroke="none" /><rect x="110.5mm" y="0.0mm" width="0.5mm" height="5mm" fill="#8C4632" stroke="none" /><rect x="111.0mm" y="0.0mm" width="0.5mm" height="5mm" fill="#8C4533" stroke="none" /><rect x="111.5mm" y="0.0mm" width="0.5mm" height="5mm" fill="#8B4433" stroke="none" /><rect x="112.0mm" y="0.0mm" width="0.5mm" height="5mm" fill="#8A4334" stroke="none" /><rect x="112.5mm" y="0.0mm" width="0.5mm" height="5mm" fill="#894235" stroke="none" /><rect x="113.0mm" y="0.0mm" width="0.5mm" height="5mm" fill="#884136" stroke="none" /><rect x="113.5mm" y="0.0mm" width="0.5mm" height="5mm" fill="#874037" stroke="none" /><rect x="114.0mm" y="0.0mm" width="0.5mm" height="5mm" fill="#874037" stroke="none" /><rect x="114.5mm" y="0.0mm" width="0.5mm" height="5mm" fill="#863F38" stroke="none" /><rect x="115.0mm" y="0.0mm" width="0.5mm" height="5mm" fill="#853E39" stroke="none" /><rect x="115.5mm" y="0.0mm" width="0.5mm" height="5mm" fill="#843D3A" stroke="none" /><rect x="116.0mm" y="0.0mm" width="0.5mm" height="5mm" fill="#843D3B" stroke="none" /><rect x="116.5mm" y="0.0mm" width="0.5mm" height="5mm" fill="#833C3C" stroke="none" /><rect x="117.0mm" y="0.0mm" width="0.5mm" height="5mm" fill="#823C3D" stroke="none" /><rect x="117.5mm" y="0.0mm" width="0.5mm" height="5mm" fill="#813B3E" stroke="none" /><rect x="118.0mm" y="0.0mm" width="0.5mm" height="5mm" fill="#813B3F" stroke="none" /><rect x="118.5mm" y="0.0mm" width="0.5mm" height="5mm" fill="#803A40" stroke="none" /><rect x="119.0mm" y="0.0mm" width="0.5mm" height="5mm" fill="#7F3A41" stroke="none" /><rect x="119.5mm" y="0.0mm" width="0.5mm" height="5mm" fill="#7E3942" stroke="none" /><rect x="120.0mm" y="0.0mm" width="0.5mm" height="5mm" fill="#7E3943" stroke="none" /><rect x="120.5mm" y="0.0mm" width="0.5mm" height="5mm" fill="#7D3945" stroke="none" /><rect x="121.0mm" y="0.0mm" width="0.5mm" height="5mm" fill="#7C3946" stroke="none" /><rect x="121.5mm" y="0.0mm" width="0.5mm" height="5mm" fill="#7C3847" stroke="none" /><rect x="122.0mm" y="0.0mm" width="0.5mm" height="5mm" fill="#7B3848" stroke="none" /><rect x="122.5mm" y="0.0mm" width="0.5mm" height="5mm" fill="#7A3849" stroke="none" /><rect x="123.0mm" y="0.0mm" width="0.5mm" height="5mm" fill="#79384B" stroke="none" /><rect x="123.5mm" y="0.0mm" width="0.5mm" height="5mm" fill="#79384C" stroke="none" /><rect x="124.0mm" y="0.0mm" width="0.5mm" height="5mm" fill="#78384D" stroke="none" /><rect x="124.5mm" y="0.0mm" width="0.5mm" height="5mm" fill="#77384F" stroke="none" /><rect x="125.0mm" y="0.0mm" width="0.5mm" height="5mm" fill="#773850" stroke="none" /><rect x="125.5mm" y="0.0mm" width="0.5mm" height="5mm" fill="#763851" stroke="none" /><rect x="126.0mm" y="0.0mm" width="0.5mm" height="5mm" fill="#753853" stroke="none" /><rect x="126.5mm" y="0.0mm" width="0.5mm" height="5mm" fill="#753954" stroke="none" /><rect x="127.0mm" y="0.0mm" width="0.5mm" height="5mm" fill="#743956" stroke="none" /><rect x="127.5mm" y="0.0mm" width="0.5mm" height="5mm" fill="#733957" stroke="none" /></svg>