<?xml version="1.0" encoding="UTF-8"?>
<!DOCTYPE svg PUBLIC "-//W3C//DTD SVG 1.1//EN"
 "http://www.w3.org/Graphics/SVG/1.1/DTD/svg11.dtd">
<svg xmlns="http://www.w3.org/2000/svg" version="1.1"
     width="217.0mm" height="5.5mm"
     shape-rendering="crispEdges">
<text x="129.0mm" y="3.8mm" font-size="3mm">cm_9039267583110145682</text><rect x="0.0mm" y="0.0mm" width="0.5mm" height="5mm" fill="#023198" stroke="none" /><rect x="0.5mm" y="0.0mm" width="0.5mm" height="5mm" fill="#053399" stroke="none" /><rect x="1.0mm" y="0.0mm" width="0.5mm" height="5mm" fill="#07359A" stroke="none" /><rect x="1.5mm" y="0.0mm" width="0.5mm" height="5mm" fill="#09379B" stroke="none" /><rect x="2.0mm" y="0.0mm" width="0.5mm" height="5mm" fill="#0B399C" stroke="none" /><rect x="2.5mm" y="0.0mm" width="0.5mm" height="5mm" fill="#0C3B9C" stroke="none" /><rect x="3.0mm" y="0.0mm" width="0.5mm" height="5mm" fill="#0E3D9D" stroke="none" /><rect x="3.5mm" y="0.0mm" width="0.5mm" height="5mm" fill="#0F3F9E" stroke="none" /><rect x="4.0mm" y="0.0mm" width="0.5mm" height="5mm" fill="#11409F" stroke="none" /><rect x="4.5mm" y="0.0mm" width="0.5mm" height="5mm" fill="#1242A0" stroke="none" /><rect x="5.0mm" y="0.0mm" width="0.5mm" height="5mm" fill="#1344A0" stroke="none" /><rect x="5.5mm" y="0.0mm" width="0.5mm" height="5mm" fill="#1446A1" stroke="none" /><rect x="6.0mm" y="0.0mm" width="0.5mm" height="5mm" fill="#1548A2" stroke="none" /><rect x="6.5mm" y="0.0mm" width="0.5mm" height="5mm" fill="#164AA3" stroke="none" /><rect x="7.0mm" y="0.0mm" width="0.5mm" height="5mm" fill="#174CA4" stroke="none" /><rect x="7.5mm" y="0.0mm" width="0.5mm" height="5mm" fill="#184DA4" stroke="none" /><rect x="8.0mm" y="0.0mm" width="0.5mm" height="5mm" fill="#194FA5" stroke="none" /><rect x="8.5mm" y="0.0mm" width="0.5mm" height="5mm" fill="#1951A6" stroke="none" /><rect x="9.0mm" y="0.0mm" width="0.5mm" height="5mm" fill="#1A53A7" stroke="none" /><rect x="9.5mm" y="0.0mm" width="0.5mm" height="5mm" fill="#1B54A8" stroke="none" /><rect x="10.0mm" y="0.0mm" width="0.5mm" height="5mm" fill="#1B56A8" stroke="none" /><rect x="10.5mm" y="0.0mm" width="0.5mm" height="5mm" fill="#1C58A9" stroke="none" /><rect x="11.0mm" y="0.0mm" width="0.5mm" height="5mm" fill="#1D5AAA" stroke="none" /><rect x="11.5mm" y="0.0mm" width="0.5mm" height="5mm" fill="#1D5BAB" stroke="none" /><rect x="12.0mm" y="0.0mm" width="0.5mm" height="5mm" fill="#1E5DAB" stroke="none" /><rect x="12.5mm" y="0.0mm" width="0.5mm" height="5mm" fill="#1E5FAC" stroke="none" /><rect x="13.0mm" y="0.0mm" width="0.5mm" height="5mm" fill="#1F60AD" stroke="none" /><rect x="13.5mm" y="0.0mm" width="0.5mm" height="5mm" fill="#2062AE" stroke="none" /><rect x="14.0mm" y="0.0mm" width="0.5mm" height="5mm" fill="#2064AE" stroke="none" /><rect x="14.5mm" y="0.0mm" width="0.5mm" height="5mm" fill="#2165AF" stroke="none" /><rect x="15.0mm" y="0.0mm" width="0.5mm" height="5mm" fill="#2167B0" stroke="none" /><rect x="15.5mm" y="0.0mm" width="0.5mm" height="5mm" fill="#2269B0" stroke="none" /><rect x="16.0mm" y="0.0mm" width="0.5mm" height="5mm" fill="#226AB1" stroke="none" /><rect x="16.5mm" y="0.0mm" width="0.5mm" height="5mm" fill="#236CB2" stroke="none" /><rect x="17.0mm" y="0.0mm" width="0.5mm" height="5mm" fill="#236EB3" stroke="none" /><rect x="17.5mm" y="0.0mm" width="0.5mm" height="5mm" fill="#246FB3" stroke="none" /><rect x="18.0mm" y="0.0mm" width="0.5mm" height="5mm" fill="#2471B4" stroke="none" /><rect x="18.5mm" y="0.0mm" width="0.5mm" height="5mm" fill="#2572B5" stroke="none" /><rect x="19.0mm" y="0.0mm" width="0.5mm" height="5mm" fill="#2574B5" stroke="none" /><rect x="19.5mm" y="0.0mm" width="0.5mm" height="5mm" fill="#2676B6" stroke="none" /><rect x="20.0mm" y="0.0mm" width="0.5mm" height="5mm" fill="#2677B7" stroke="none" /><rect x="20.5mm" y="0.0mm" width="0.5mm" height="5mm" fill="#2779B7" stroke="none" /><rect x="21.0mm" y="0.0mm" width="0.5mm" height="5mm" fill="#287AB8" stroke="none" /><rect x="21.5mm" y="0.0mm" width="0.5mm" height="5mm" fill="#287CB9" stroke="none" /><rect x="22.0mm" y="0.0mm" width="0.5mm" height="5mm" fill="#297EB9" stroke="none" /><rect x="22.5mm" y="0.0mm" width="0.5mm" height="5mm" fill="#297FBA" stroke="none" /><rect x="23.0mm" y="0.0mm" width="0.5mm" height="5mm" fill="#2A81BB" stroke="none" /><rect x="23.5mm" y="0.0mm" width="0.5mm" height="5mm" fill="#2B82BB" stroke="none" /><rect x="24.0mm" y="0.0mm" width="0.5mm" height="5mm" fill="#2B84BC" stroke="none" /><rect x="24.5mm" y="0.0mm" width="0.5mm" height="5mm" fill="#2C85BD" stroke="none" /><rect x="25.0mm" y="0.0mm" width="0.5mm" height="5mm" fill="#2D87BD" stroke="none" /><rect x="25.5mm" y="0.0mm" width="0.5mm" height="5mm" fill="#2D88BE" stroke="none" /><rect x="26.0mm" y="0.0mm" width="0.5mm" height="5mm" fill="#2E8ABF" stroke="none" /><rect x="26.5mm" y="0.0mm" width="0.5mm" height="5mm" fill="#2F8CBF" stroke="none" /><rect x="27.0mm" y="0.0mm" width="0.5mm" height="5mm" fill="#308DC0" stroke="none" /><rect x="27.5mm" y="0.0mm" width="0.5mm" height="5mm" fill="#308FC1" stroke="none" /><rect x="28.0mm" y="0.0mm" width="0.5mm" height="5mm" fill="#3190C1" stroke="none" /><rect x="28.5mm" y="0.0mm" width="0.5mm" height="5mm" fill="#3292C2" stroke="none" /><rect x="29.0mm" y="0.0mm" width="0.5mm" height="5mm" fill="#3394C3" stroke="none" /><rect x="29.5mm" y="0.0mm" width="0.5mm" height="5mm" fill="#3495C3" stroke="none" /><rect x="30.0mm" y="0.0mm" width="0.5mm" height="5mm" fill="#3597C4" stroke="none" /><rect x="30.5mm" y="0.0mm" width="0.5mm" height="5mm" fill="#3698C5" stroke="none" /><rect x="31.0mm" y="0.0mm" width="0.5mm" height="5mm" fill="#379AC5" stroke="none" /><rect x="31.5mm" y="0.0mm" width="0.5mm" height="5mm" fill="#389CC6" stroke="none" /><rect x="32.0mm" y="0.0mm" width="0.5mm" height="5mm" fill="#399DC7" stroke="none" /><rect x="32.5mm" y="0.0mm" width="0.5mm" height="5mm" fill="#3A9FC7" stroke="none" /><rect x="33.0mm" y="0.0mm" width="0.5mm" height="5mm" fill="#3CA1C8" stroke="none" /><rect x="33.5mm" y="0.0mm" width="0.5mm" height="5mm" fill="#3DA2C9" stroke="none" /><rect x="34.0mm" y="0.0mm" width="0.5mm" height="5mm" fill="#3EA4C9" stroke="none" /><rect x="34.5mm" y="0.0mm" width="0.5mm" height="5mm" fill="#40A6CA" stroke="none" /><rect x="35.0mm" y="0.0mm" width="0.5mm" height="5mm" fill="#41A7CB" stroke="none" /><rect x="35.5mm" y="0.0mm" width="0.5mm" height="5mm" fill="#43A9CB" stroke="none" /><rect x="36.0mm" y="0.0mm" width="0.5mm" height="5mm" fill="#44ABCC" stroke="none" /><rect x="36.5mm" y="0.0mm" width="0.5mm" height="5mm" fill="#46ACCC" stroke="none" /><rect x="37.0mm" y="0.0mm" width="0.5mm" height="5mm" fill="#47AECD" stroke="none" /><rect x="37.5mm" y="0.0mm" width="0.5mm" height="5mm" fill="#49B0CE" stroke="none" /><rect x="38.0mm" y="0.0mm" width="0.5mm" height="5mm" fill="#4BB2CE" stroke="none" /><rect x="38.5mm" y="0.0mm" width="0.5mm" height="5mm" fill="#4DB3CF" stroke="none" /><rect x="39.0mm" y="0.0mm" width="0.5mm" height="5mm" fill="#4FB5CF" stroke="none" /><rect x="39.5mm" y="0.0mm" width="0.5mm" height="5mm" fill="#51B7D0" stroke="none" /><rect x="40.0mm" y="0.0mm" width="0.5mm" height="5mm" fill="#53B8D1" stroke="none" /><rect x="40.5mm" y="0.0mm" width="0.5mm" height="5mm" fill="#55BAD1" stroke="none" /><rect x="41.0mm" y="0.0mm" width="0.5mm" height="5mm" fill="#57BCD2" stroke="none" /><rect x="41.5mm" y="0.0mm" width="0.5mm" height="5mm" fill="#59BDD2" stroke="none" /><rect x="42.0mm" y="0.0mm" width="0.5mm" height="5mm" fill="#5BBFD3" stroke="none" /><rect x="42.5mm" y="0.0mm" width="0.5mm" height="5mm" fill="#5DC1D3" stroke="none" /><rect x="43.0mm" y="0.0mm" width="0.5mm" height="5mm" fill="#60C2D4" stroke="none" /><rect x="43.5mm" y="0.0mm" width="0.5mm" height="5mm" fill="#62C4D4" stroke="none" /><rect x="44.0mm" y="0.0mm" width="0.5mm" height="5mm" fill="#64C6D5" stroke="none" /><rect x="44.5mm" y="0.0mm" width="0.5mm" height="5mm" fill="#67C7D5" stroke="none" /><rect x="45.0mm" y="0.0mm" width="0.5mm" height="5mm" fill="#69C9D5" stroke="none" /><rect x="45.5mm" y="0.0mm" width="0.5mm" height="5mm" fill="#6CCBD6" stroke="none" /><rect x="46.0mm" y="0.0mm" width="0.5mm" height="5mm" fill="#6ECCD6" stroke="none" /><rect x="46.5mm" y="0.0mm" width="0.5mm" height="5mm" fill="#71CED6" stroke="none" /><rect x="47.0mm" y="0.0mm" width="0.5mm" height="5mm" fill="#74CFD7" stroke="none" /><rect x="47.5mm" y="0.0mm" width="0.5mm" height="5mm" fill="#76D1D7" stroke="none" /><rect x="48.0mm" y="0.0mm" width="0.5mm" height="5mm" fill="#79D2D7" stroke="none" /><rect x="48.5mm" y="0.0mm" width="0.5mm" height="5mm" fill="#7BD4D7" stroke="none" /><rect x="49.0mm" y="0.0mm" width="0.5mm" height="5mm" fill="#7ED5D7" stroke="none" /><rect x="49.5mm" y="0.0mm" width="0.5mm" height="5mm" fill="#81D7D7" stroke="none" /><rect x="50.0mm" y="0.0mm" width="0.5mm" height="5mm" fill="#83D8D7" stroke="none" /><rect x="50.5mm" y="0.0mm" width="0.5mm" height="5mm" fill="#86D9D7" stroke="none" /><rect x="51.0mm" y="0.0mm" width="0.5mm" height="5mm" fill="#89DAD7" stroke="none" /><rect x="51.5mm" y="0.0mm" width="0.5mm" height="5mm" fill="#8BDCD7" stroke="none" /><rect x="52.0mm" y="0.0mm" width="0.5mm" height="5mm" fill="#8EDDD7" stroke="none" /><rect x="52.5mm" y="0.0mm" width="0.5mm" height="5mm" fill="#90DED7" stroke="none" /><rect x="53.0mm" y="0.0mm" width="0.5mm" height="5mm" fill="#93DFD6" stroke="none" /><rect x="53.5mm" y="0.0mm" width="0.5mm" height="5mm" fill="#96E0D6" stroke="none" /><rect x="54.0mm" y="0.0mm" width="0.5mm" height="5mm" fill="#98E1D6" stroke="none" /><rect x="54.5mm" y="0.0mm" width="0.5mm" height="5mm" fill="#9BE2D5" stroke="none" /><rect x="55.0mm" y="0.0mm" width="0.5mm" height="5mm" fill="#9DE3D5" stroke="none" /><rect x="55.5mm" y="0.0mm" width="0.5mm" height="5mm" fill="#9FE4D4" stroke="none" /><rect x="56.0mm" y="0.0mm" width="0.5mm" height="5mm" fill="#A2E5D4" stroke="none" /><rect x="56.5mm" y="0.0mm" width="0.5mm" height="5mm" fill="#A4E5D3" stroke="none" /><rect x="57.0mm" y="0.0mm" width="0.5mm" height="5mm" fill="#A6E6D2" stroke="none" /><rect x="57.5mm" y="0.0mm" width="0.5mm" height="5mm" fill="#A9E7D2" stroke="none" /><rect x="58.0mm" y="0.0mm" width="0.5mm" height="5mm" fill="#ABE7D1" stroke="none" /><rect x="58.5mm" y="0.0mm" width="0.5mm" height="5mm" fill="#ADE8D0" stroke="none" /><rect x="59.0mm" y="0.0mm" width="0.5mm" height="5mm" fill="#AFE8CF" stroke="none" /><rect x="59.5mm" y="0.0mm" width="0.5mm" height="5mm" fill="#B1E9CE" stroke="none" /><rect x="60.0mm" y="0.0mm" width="0.5mm" height="5mm" fill="#B3E9CD" stroke="none" /><rect x="60.5mm" y="0.0mm" width="0.5mm" height="5mm" fill="#B5EACC" stroke="none" /><rect x="61.0mm" y="0.0mm" width="0.5mm" height="5mm" fill="#B7EACA" stroke="none" /><rect x="61.5mm" y="0.0mm" width="0.5mm" height="5mm" fill="#B9EAC9" stroke="none" /><rect x="62.0mm" y="0.0mm" width="0.5mm" height="5mm" fill="#BBEAC8" stroke="none" /><rect x="62.5mm" y="0.0mm" width="0.5mm" height="5mm" fill="#BDEAC6" stroke="none" /><rect x="63.0mm" y="0.0mm" width="0.5mm" height="5mm" fill="#BEEAC5" stroke="none" /><rect x="63.5mm" y="0.0mm" width="0.5mm" height="5mm" fill="#C0EAC3" stroke="none" /><rect x="64.0mm" y="0.0mm" width="0.5mm" height="5mm" fill="#C1EAC2" stroke="none" /><rect x="64.5mm" y="0.0mm" width="0.5mm" height="5mm" fill="#C3EAC0" stroke="none" /><rect x="65.0mm" y="0.0mm" width="0.5mm" height="5mm" fill="#C4EABE" stroke="none" /><rect x="65.5mm" y="0.0mm" width="0.5mm" height="5mm" fill="#C6EABC" stroke="none" /><rect x="66.0mm" y="0.0mm" width="0.5mm" height="5mm" fill="#C7E9BA" stroke="none" /><rect x="66.5mm" y="0.0mm" width="0.5mm" height="5mm" fill="#C8E9B8" stroke="none" /><rect x="67.0mm" y="0.0mm" width="0.5mm" height="5mm" fill="#C9E9B6" stroke="none" /><rect x="67.5mm" y="0.0mm" width="0.5mm" height="5mm" fill="#CBE8B4" stroke="none" /><rect x="68.0mm" y="0.0mm" width="0.5mm" height="5mm" fill="#CCE7B2" stroke="none" /><rect x="68.5mm" y="0.0mm" width="0.5mm" height="5mm" fill="#CCE7B0" stroke="none" /><rect x="69.0mm" y="0.0mm" width="0.5mm" height="5mm" fill="#CDE6AD" stroke="none" /><rect x="69.5mm" y="0.0mm" width="0.5mm" height="5mm" fill="#CEE5AB" stroke="none" /><rect x="70.0mm" y="0.0mm" width="0.5mm" height="5mm" fill="#CFE5A8" stroke="none" /><rect x="70.5mm" y="0.0mm" width="0.5mm" height="5mm" fill="#D0E4A6" stroke="none" /><rect x="71.0mm" y="0.0mm" width="0.5mm" height="5mm" fill="#D0E3A3" stroke="none" /><rect x="71.5mm" y="0.0mm" width="0.5mm" height="5mm" fill="#D1E2A1" stroke="none" /><rect x="72.0mm" y="0.0mm" width="0.5mm" height="5mm" fill="#D1E19E" stroke="none" /><rect x="72.5mm" y="0.0mm" width="0.5mm" height="5mm" fill="#D1DF9B" stroke="none" /><rect x="73.0mm" y="0.0mm" width="0.5mm" height="5mm" fill="#D2DE98" stroke="none" /><rect x="73.5mm" y="0.0mm" width="0.5mm" height="5mm" fill="#D2DD96" stroke="none" /><rect x="74.0mm" y="0.0mm" width="0.5mm" height="5mm" fill="#D2DC93" stroke="none" /><rect x="74.5mm" y="0.0mm" width="0.5mm" height="5mm" fill="#D2DA90" stroke="none" /><rect x="75.0mm" y="0.0mm" width="0.5mm" height="5mm" fill="#D2D98D" stroke="none" /><rect x="75.5mm" y="0.0mm" width="0.5mm" height="5mm" fill="#D2D78A" stroke="none" /><rect x="76.0mm" y="0.0mm" width="0.5mm" height="5mm" fill="#D2D687" stroke="none" /><rect x="76.5mm" y="0.0mm" width="0.5mm" height="5mm" fill="#D2D484" stroke="none" /><rect x="77.0mm" y="0.0mm" width="0.5mm" height="5mm" fill="#D2D381" stroke="none" /><rect x="77.5mm" y="0.0mm" width="0.5mm" height="5mm" fill="#D2D17E" stroke="none" /><rect x="78.0mm" y="0.0mm" width="0.5mm" height="5mm" fill="#D1CF7B" stroke="none" /><rect x="78.5mm" y="0.0mm" width="0.5mm" height="5mm" fill="#D1CD78" stroke="none" /><rect x="79.0mm" y="0.0mm" width="0.5mm" height="5mm" fill="#D0CC75" stroke="none" /><rect x="79.5mm" y="0.0mm" width="0.5mm" height="5mm" fill="#D0CA72" stroke="none" /><rect x="80.0mm" y="0.0mm" width="0.5mm" height="5mm" fill="#CFC86F" stroke="none" /><rect x="80.5mm" y="0.0mm" width="0.5mm" height="5mm" fill="#CFC66D" stroke="none" /><rect x="81.0mm" y="0.0mm" width="0.5mm" height="5mm" fill="#CEC46A" stroke="none" /><rect x="81.5mm" y="0.0mm" width="0.5mm" height="5mm" fill="#CEC267" stroke="none" /><rect x="82.0mm" y="0.0mm" width="0.5mm" height="5mm" fill="#CDC064" stroke="none" /><rect x="82.5mm" y="0.0mm" width="0.5mm" height="5mm" fill="#CCBE62" stroke="none" /><rect x="83.0mm" y="0.0mm" width="0.5mm" height="5mm" fill="#CBBC5F" stroke="none" /><rect x="83.5mm" y="0.0mm" width="0.5mm" height="5mm" fill="#CBBA5D" stroke="none" /><rect x="84.0mm" y="0.0mm" width="0.5mm" height="5mm" fill="#CAB85A" stroke="none" /><rect x="84.5mm" y="0.0mm" width="0.5mm" height="5mm" fill="#C9B658" stroke="none" /><rect x="85.0mm" y="0.0mm" width="0.5mm" height="5mm" fill="#C8B455" stroke="none" /><rect x="85.5mm" y="0.0mm" width="0.5mm" height="5mm" fill="#C7B253" stroke="none" /><rect x="86.0mm" y="0.0mm" width="0.5mm" height="5mm" fill="#C7B051" stroke="none" /><rect x="86.5mm" y="0.0mm" width="0.5mm" height="5mm" fill="#C6AE4F" stroke="none" /><rect x="87.0mm" y="0.0mm" width="0.5mm" height="5mm" fill="#C5AC4C" stroke="none" /><rect x="87.5mm" y="0.0mm" width="0.5mm" height="5mm" fill="#C4AA4A" stroke="none" /><rect x="88.0mm" y="0.0mm" width="0.5mm" height="5mm" fill="#C3A848" stroke="none" /><rect x="88.5mm" y="0.0mm" width="0.5mm" height="5mm" fill="#C2A647" stroke="none" /><rect x="89.0mm" y="0.0mm" width="0.5mm" height="5mm" fill="#C1A545" stroke="none" /><rect x="89.5mm" y="0.0mm" width="0.5mm" height="5mm" fill="#C1A343" stroke="none" /><rect x="90.0mm" y="0.0mm" width="0.5mm" height="5mm" fill="#C0A141" stroke="none" /><rect x="90.5mm" y="0.0mm" width="0.5mm" height="5mm" fill="#BF9F40" stroke="none" /><rect x="91.0mm" y="0.0mm" width="0.5mm" height="5mm" fill="#BE9D3E" stroke="none" /><rect x="91.5mm" y="0.0mm" width="0.5mm" height="5mm" fill="#BD9B3C" stroke="none" /><rect x="92.0mm" y="0.0mm" width="0.5mm" height="5mm" fill="#BC993B" stroke="none" /><rect x="92.5mm" y="0.0mm" width="0.5mm" height="5mm" fill="#BB9739" stroke="none" /><rect x="93.0mm" y="0.0mm" width="0.5mm" height="5mm" fill="#BA9538" stroke="none" /><rect x="93.5mm" y="0.0mm" width="0.5mm" height="5mm" fill="#BA9437" stroke="none" /><rect x="94.0mm" y="0.0mm" width="0.5mm" height="5mm" fill="#B99235" stroke="none" /><rect x="94.5mm" y="0.0mm" width="0.5mm" height="5mm" fill="#B89034" stroke="none" /><rect x="95.0mm" y="0.0mm" width="0.5mm" height="5mm" fill="#B78E33" stroke="none" /><rect x="95.5mm" y="0.0mm" width="0.5mm" height="5mm" fill="#B68C32" stroke="none" /><rect x="96.0mm" y="0.0mm" width="0.5mm" height="5mm" fill="#B58B31" stroke="none" /><rect x="96.5mm" y="0.0mm" width="0.5mm" height="5mm" fill="#B58930" stroke="none" /><rect x="97.0mm" y="0.0mm" width="0.5mm" height="5mm" fill="#B4872F" stroke="none" /><rect x="97.5mm" y="0.0mm" width="0.5mm" height="5mm" fill="#B3862E" stroke="none" /><rect x="98.0mm" y="0.0mm" width="0.5mm" height="5mm" fill="#B2842D" stroke="none" /><rect x="98.5mm" y="0.0mm" width="0.5mm" height="5mm" fill="#B1822C" stroke="none" /><rect x="99.0mm" y="0.0mm" width="0.5mm" height="5mm" fill="#B0802B" stroke="none" /><rect x="99.5mm" y="0.0mm" width="0.5mm" height="5mm" fill="#B07F2A" stroke="none" /><rect x="100.0mm" y="0.0mm" width="0.5mm" height="5mm" fill="#AF7D29" stroke="none" /><rect x="100.5mm" y="0.0mm" width="0.5mm" height="5mm" fill="#AE7B28" stroke="none" /><rect x="101.0mm" y="0.0mm" width="0.5mm" height="5mm" fill="#AD7A27" stroke="none" /><rect x="101.5mm" y="0.0mm" width="0.5mm" height="5mm" fill="#AD7827" stroke="none" /><rect x="102.0mm" y="0.0mm" width="0.5mm" height="5mm" fill="#AC7726" stroke="none" /><rect x="102.5mm" y="0.0mm" width="0.5mm" height="5mm" fill="#AB7525" stroke="none" /><rect x="103.0mm" y="0.0mm" width="0.5mm" height="5mm" fill="#AA7324" stroke="none" /><rect x="103.5mm" y="0.0mm" width="0.5mm" height="5mm" fill="#A97223" stroke="none" /><rect x="104.0mm" y="0.0mm" width="0.5mm" height="5mm" fill="#A97023" stroke="none" /><rect x="104.5mm" y="0.0mm" width="0.5mm" height="5mm" fill="#A86F22" stroke="none" /><rect x="105.0mm" y="0.0mm" width="0.5mm" height="5mm" fill="#A76D21" stroke="none" /><rect x="105.5mm" y="0.0mm" width="0.5mm" height="5mm" fill="#A66C20" stroke="none" /><rect x="106.0mm" y="0.0mm" width="0.5mm" height="5mm" fill="#A66A20" stroke="none" /><rect x="106.5mm" y="0.0mm" width="0.5mm" height="5mm" fill="#A5681F" stroke="none" /><rect x="107.0mm" y="0.0mm" width="0.5mm" height="5mm" fill="#A4671E" stroke="none" /><rect x="107.5mm" y="0.0mm" width="0.5mm" height="5mm" fill="#A3651E" stroke="none" /><rect x="108.0mm" y="0.0mm" width="0.5mm" height="5mm" fill="#A2641D" stroke="none" /><rect x="108.5mm" y="0.0mm" width="0.5mm" height="5mm" fill="#A2621C" stroke="none" /><rect x="109.0mm" y="0.0mm" width="0.5mm" height="5mm" fill="#A1601C" stroke="none" /><rect x="109.5mm" y="0.0mm" width="0.5mm" height="5mm" fill="#A05F1B" stroke="none" /><rect x="110.0mm" y="0.0mm" width="0.5mm" height="5mm" fill="#9F5D1A" stroke="none" /><rect x="110.5mm" y="0.0mm" width="0.5mm" height="5mm" fill="#9E5C19" stroke="none" /><rect x="111.0mm" y="0.0mm" width="0.5mm" height="5mm" fill="#9E5A19" stroke="none" /><rect x="111.5mm" y="0.0mm" width="0.5mm" height="5mm" fill="#9D5818" stroke="none" /><rect x="112.0mm" y="0.0mm" width="0.5mm" height="5mm" fill="#9C5717" stroke="none" /><rect x="112.5mm" y="0.0mm" width="0.5mm" height="5mm" fill="#9B5517" stroke="none" /><rect x="113.0mm" y="0.0mm" width="0.5mm" height="5mm" fill="#9A5316" stroke="none" /><rect x="113.5mm" y="0.0mm" width="0.5mm" height="5mm" fill="#995215" stroke="none" /><rect x="114.0mm" y="0.0mm" width="0.5mm" height="5mm" fill="#995014" stroke="none" /><rect x="114.5mm" y="0.0mm" width="0.5mm" height="5mm" fill="#984E14" stroke="none" /><rect x="115.0mm" y="0.0mm" width="0.5mm" height="5mm" fill="#974D13" stroke="none" /><rect x="115.5mm" y="0.0mm" width="0.5mm" height="5mm" fill="#964B12" stroke="none" /><rect x="116.0mm" y="0.0mm" width="0.5mm" height="5mm" fill="#954912" stroke="none" /><rect x="116.5mm" y="0.0mm" width="0.5mm" height="5mm" fill="#944711" stroke="none" /><rect x="117.0mm" y="0.0mm" width="0.5mm" height="5mm" fill="#934610" stroke="none" /><rect x="117.5mm" y="0.0mm" width="0.5mm" height="5mm" fill="#92440F" stroke="none" /><rect x="118.0mm" y="0.0mm" width="0.5mm" height="5mm" fill="#91420F" stroke="none" /><rect x="118.5mm" y="0.0mm" width="0.5mm" height="5mm" fill="#90400E" stroke="none" /><rect x="119.0mm" y="0.0mm" width="0.5mm" height="5mm" fill="#903E0D" stroke="none" /><rect x="119.5mm" y="0.0mm" width="0.5mm" height="5mm" fill="#8F3C0C" stroke="none" /><rect x="120.0mm" y="0.0mm" width="0.5mm" height="5mm" fill="#8E3A0B" stroke="none" /><rect x="120.5mm" y="0.0mm" width="0.5mm" height="5mm" fill="#8D380B" stroke="none" /><rect x="121.0mm" y="0.0mm" width="0.5mm" height="5mm" fill="#8C360A" stroke="none" /><rect x="121.5mm" y="0.0mm" width="0.5mm" height="5mm" fill="#8B3409" stroke="none" /><rect x="122.0mm" y="0.0mm" width="0.5mm" height="5mm" fill="#893208" stroke="none" /><rect x="122.5mm" y="0.0mm" width="0.5mm" height="5mm" fill="#883008" stroke="none" /><rect x="123.0mm" y="0.0mm" width="0.5mm" height="5mm" fill="#872E07" stroke="none" /><rect x="123.5mm" y="0.0mm" width="0.5mm" height="5mm" fill="#862C06" stroke="none" /><rect x="124.0mm" y="0.0mm" width="0.5mm" height="5mm" fill="#852A06" stroke="none" /><rect x="124.5mm" y="0.0mm" width="0.5mm" height="5mm" fill="#842705" stroke="none" /><rect x="125.0mm" y="0.0mm" width="0.5mm" height="5mm" fill="#832504" stroke="none" /><rect x="125.5mm" y="0.0mm" width="0.5mm" height="5mm" fill="#822204" stroke="none" /><rect x="126.0mm" y="0.0mm" width="0.5mm" height="5mm" fill="#812003" stroke="none" /><rect x="126.5mm" y="0.0mm" width="0.5mm" height="5mm" fill="#801D02" stroke="none" /><rect x="127.0mm" y="0.0mm" width="0.5mm" height="5mm" fill="#7F1A01" stroke="none" /><rect x="127.5mm" y="0.0mm" width="0.5mm" height="5mm" fill="#7E1700" stroke="none" /></svg>