<?xml version"1.0" encoding="UTF-8"?>
<!DOCTYPE svg PUBLIC "-//W3C//DTD SVG 1.1//EN"
 "http://www.w3.org/Graphics/SVG/1.1/DTD/svg11.dtd">
<svg xmlns="http://www.w3.org/2000/svg" version="1.1"
     width="217.0mm" height="5.5mm"
     shape-rendering="crispEdges">
<text x="129.0mm" y="3.8mm" font-size="3mm">cm_2018115237263113442</text><rect x="0.0mm" y="0.0mm" width="0.5mm" height="5mm" fill="#7F1900" stroke="none" /><rect x="0.5mm" y="0.0mm" width="0.5mm" height="5mm" fill="#801C01" stroke="none" /><rect x="1.0mm" y="0.0mm" width="0.5mm" height="5mm" fill="#811F02" stroke="none" /><rect x="1.5mm" y="0.0mm" width="0.5mm" height="5mm" fill="#822203" stroke="none" /><rect x="2.0mm" y="0.0mm" width="0.5mm" height="5mm" fill="#832504" stroke="none" /><rect x="2.5mm" y="0.0mm" width="0.5mm" height="5mm" fill="#842705" stroke="none" /><rect x="3.0mm" y="0.0mm" width="0.5mm" height="5mm" fill="#862A05" stroke="none" /><rect x="3.5mm" y="0.0mm" width="0.5mm" height="5mm" fill="#872C06" stroke="none" /><rect x="4.0mm" y="0.0mm" width="0.5mm" height="5mm" fill="#882F07" stroke="none" /><rect x="4.5mm" y="0.0mm" width="0.5mm" height="5mm" fill="#893108" stroke="none" /><rect x="5.0mm" y="0.0mm" width="0.5mm" height="5mm" fill="#8A3308" stroke="none" /><rect x="5.5mm" y="0.0mm" width="0.5mm" height="5mm" fill="#8B3509" stroke="none" /><rect x="6.0mm" y="0.0mm" width="0.5mm" height="5mm" fill="#8C380A" stroke="none" /><rect x="6.5mm" y="0.0mm" width="0.5mm" height="5mm" fill="#8D3A0B" stroke="none" /><rect x="7.0mm" y="0.0mm" width="0.5mm" height="5mm" fill="#8F3C0C" stroke="none" /><rect x="7.5mm" y="0.0mm" width="0.5mm" height="5mm" fill="#903E0D" stroke="none" /><rect x="8.0mm" y="0.0mm" width="0.5mm" height="5mm" fill="#91400E" stroke="none" /><rect x="8.5mm" y="0.0mm" width="0.5mm" height="5mm" fill="#92420F" stroke="none" /><rect x="9.0mm" y="0.0mm" width="0.5mm" height="5mm" fill="#934410" stroke="none" /><rect x="9.5mm" y="0.0mm" width="0.5mm" height="5mm" fill="#944710" stroke="none" /><rect x="10.0mm" y="0.0mm" width="0.5mm" height="5mm" fill="#954911" stroke="none" /><rect x="10.5mm" y="0.0mm" width="0.5mm" height="5mm" fill="#964B12" stroke="none" /><rect x="11.0mm" y="0.0mm" width="0.5mm" height="5mm" fill="#974D13" stroke="none" /><rect x="11.5mm" y="0.0mm" width="0.5mm" height="5mm" fill="#984F14" stroke="none" /><rect x="12.0mm" y="0.0mm" width="0.5mm" height="5mm" fill="#995115" stroke="none" /><rect x="12.5mm" y="0.0mm" width="0.5mm" height="5mm" fill="#9A5316" stroke="none" /><rect x="13.0mm" y="0.0mm" width="0.5mm" height="5mm" fill="#9B5516" stroke="none" /><rect x="13.5mm" y="0.0mm" width="0.5mm" height="5mm" fill="#9C5717" stroke="none" /><rect x="14.0mm" y="0.0mm" width="0.5mm" height="5mm" fill="#9D5918" stroke="none" /><rect x="14.5mm" y="0.0mm" width="0.5mm" height="5mm" fill="#9E5B19" stroke="none" /><rect x="15.0mm" y="0.0mm" width="0.5mm" height="5mm" fill="#9F5D1A" stroke="none" /><rect x="15.5mm" y="0.0mm" width="0.5mm" height="5mm" fill="#A05F1B" stroke="none" /><rect x="16.0mm" y="0.0mm" width="0.5mm" height="5mm" fill="#A1611C" stroke="none" /><rect x="16.5mm" y="0.0mm" width="0.5mm" height="5mm" fill="#A2631C" stroke="none" /><rect x="17.0mm" y="0.0mm" width="0.5mm" height="5mm" fill="#A3651D" stroke="none" /><rect x="17.5mm" y="0.0mm" width="0.5mm" height="5mm" fill="#A4671E" stroke="none" /><rect x="18.0mm" y="0.0mm" width="0.5mm" height="5mm" fill="#A5691F" stroke="none" /><rect x="18.5mm" y="0.0mm" width="0.5mm" height="5mm" fill="#A66B20" stroke="none" /><rect x="19.0mm" y="0.0mm" width="0.5mm" height="5mm" fill="#A76D21" stroke="none" /><rect x="19.5mm" y="0.0mm" width="0.5mm" height="5mm" fill="#A86F21" stroke="none" /><rect x="20.0mm" y="0.0mm" width="0.5mm" height="5mm" fill="#A97122" stroke="none" /><rect x="20.5mm" y="0.0mm" width="0.5mm" height="5mm" fill="#AA7223" stroke="none" /><rect x="21.0mm" y="0.0mm" width="0.5mm" height="5mm" fill="#AB7424" stroke="none" /><rect x="21.5mm" y="0.0mm" width="0.5mm" height="5mm" fill="#AC7625" stroke="none" /><rect x="22.0mm" y="0.0mm" width="0.5mm" height="5mm" fill="#AD7826" stroke="none" /><rect x="22.5mm" y="0.0mm" width="0.5mm" height="5mm" fill="#AD7A27" stroke="none" /><rect x="23.0mm" y="0.0mm" width="0.5mm" height="5mm" fill="#AE7C27" stroke="none" /><rect x="23.5mm" y="0.0mm" width="0.5mm" height="5mm" fill="#AF7E28" stroke="none" /><rect x="24.0mm" y="0.0mm" width="0.5mm" height="5mm" fill="#B08029" stroke="none" /><rect x="24.5mm" y="0.0mm" width="0.5mm" height="5mm" fill="#B1822A" stroke="none" /><rect x="25.0mm" y="0.0mm" width="0.5mm" height="5mm" fill="#B2842B" stroke="none" /><rect x="25.5mm" y="0.0mm" width="0.5mm" height="5mm" fill="#B3862C" stroke="none" /><rect x="26.0mm" y="0.0mm" width="0.5mm" height="5mm" fill="#B4882D" stroke="none" /><rect x="26.5mm" y="0.0mm" width="0.5mm" height="5mm" fill="#B58A2E" stroke="none" /><rect x="27.0mm" y="0.0mm" width="0.5mm" height="5mm" fill="#B68C2F" stroke="none" /><rect x="27.5mm" y="0.0mm" width="0.5mm" height="5mm" fill="#B78F30" stroke="none" /><rect x="28.0mm" y="0.0mm" width="0.5mm" height="5mm" fill="#B89131" stroke="none" /><rect x="28.5mm" y="0.0mm" width="0.5mm" height="5mm" fill="#B99333" stroke="none" /><rect x="29.0mm" y="0.0mm" width="0.5mm" height="5mm" fill="#BA9534" stroke="none" /><rect x="29.5mm" y="0.0mm" width="0.5mm" height="5mm" fill="#BB9735" stroke="none" /><rect x="30.0mm" y="0.0mm" width="0.5mm" height="5mm" fill="#BC9936" stroke="none" /><rect x="30.5mm" y="0.0mm" width="0.5mm" height="5mm" fill="#BD9B38" stroke="none" /><rect x="31.0mm" y="0.0mm" width="0.5mm" height="5mm" fill="#BF9D39" stroke="none" /><rect x="31.5mm" y="0.0mm" width="0.5mm" height="5mm" fill="#C09F3A" stroke="none" /><rect x="32.0mm" y="0.0mm" width="0.5mm" height="5mm" fill="#C1A23C" stroke="none" /><rect x="32.5mm" y="0.0mm" width="0.5mm" height="5mm" fill="#C2A43E" stroke="none" /><rect x="33.0mm" y="0.0mm" width="0.5mm" height="5mm" fill="#C3A63F" stroke="none" /><rect x="33.5mm" y="0.0mm" width="0.5mm" height="5mm" fill="#C4A841" stroke="none" /><rect x="34.0mm" y="0.0mm" width="0.5mm" height="5mm" fill="#C5AB43" stroke="none" /><rect x="34.5mm" y="0.0mm" width="0.5mm" height="5mm" fill="#C6AD45" stroke="none" /><rect x="35.0mm" y="0.0mm" width="0.5mm" height="5mm" fill="#C8AF47" stroke="none" /><rect x="35.5mm" y="0.0mm" width="0.5mm" height="5mm" fill="#C9B149" stroke="none" /><rect x="36.0mm" y="0.0mm" width="0.5mm" height="5mm" fill="#CAB44B" stroke="none" /><rect x="36.5mm" y="0.0mm" width="0.5mm" height="5mm" fill="#CBB64D" stroke="none" /><rect x="37.0mm" y="0.0mm" width="0.5mm" height="5mm" fill="#CDB84F" stroke="none" /><rect x="37.5mm" y="0.0mm" width="0.5mm" height="5mm" fill="#CEBB52" stroke="none" /><rect x="38.0mm" y="0.0mm" width="0.5mm" height="5mm" fill="#CFBD54" stroke="none" /><rect x="38.5mm" y="0.0mm" width="0.5mm" height="5mm" fill="#D0BF57" stroke="none" /><rect x="39.0mm" y="0.0mm" width="0.5mm" height="5mm" fill="#D1C159" stroke="none" /><rect x="39.5mm" y="0.0mm" width="0.5mm" height="5mm" fill="#D3C35C" stroke="none" /><rect x="40.0mm" y="0.0mm" width="0.5mm" height="5mm" fill="#D4C65F" stroke="none" /><rect x="40.5mm" y="0.0mm" width="0.5mm" height="5mm" fill="#D5C861" stroke="none" /><rect x="41.0mm" y="0.0mm" width="0.5mm" height="5mm" fill="#D6CA64" stroke="none" /><rect x="41.5mm" y="0.0mm" width="0.5mm" height="5mm" fill="#D7CC67" stroke="none" /><rect x="42.0mm" y="0.0mm" width="0.5mm" height="5mm" fill="#D8CE6A" stroke="none" /><rect x="42.5mm" y="0.0mm" width="0.5mm" height="5mm" fill="#D9CF6D" stroke="none" /><rect x="43.0mm" y="0.0mm" width="0.5mm" height="5mm" fill="#DAD16F" stroke="none" /><rect x="43.5mm" y="0.0mm" width="0.5mm" height="5mm" fill="#DBD372" stroke="none" /><rect x="44.0mm" y="0.0mm" width="0.5mm" height="5mm" fill="#DCD575" stroke="none" /><rect x="44.5mm" y="0.0mm" width="0.5mm" height="5mm" fill="#DDD678" stroke="none" /><rect x="45.0mm" y="0.0mm" width="0.5mm" height="5mm" fill="#DED87B" stroke="none" /><rect x="45.5mm" y="0.0mm" width="0.5mm" height="5mm" fill="#DED97E" stroke="none" /><rect x="46.0mm" y="0.0mm" width="0.5mm" height="5mm" fill="#DFDB80" stroke="none" /><rect x="46.5mm" y="0.0mm" width="0.5mm" height="5mm" fill="#E0DC83" stroke="none" /><rect x="47.0mm" y="0.0mm" width="0.5mm" height="5mm" fill="#E0DD86" stroke="none" /><rect x="47.5mm" y="0.0mm" width="0.5mm" height="5mm" fill="#E1DE89" stroke="none" /><rect x="48.0mm" y="0.0mm" width="0.5mm" height="5mm" fill="#E1DF8B" stroke="none" /><rect x="48.5mm" y="0.0mm" width="0.5mm" height="5mm" fill="#E2E08E" stroke="none" /><rect x="49.0mm" y="0.0mm" width="0.5mm" height="5mm" fill="#E2E190" stroke="none" /><rect x="49.5mm" y="0.0mm" width="0.5mm" height="5mm" fill="#E2E293" stroke="none" /><rect x="50.0mm" y="0.0mm" width="0.5mm" height="5mm" fill="#E3E395" stroke="none" /><rect x="50.5mm" y="0.0mm" width="0.5mm" height="5mm" fill="#E3E498" stroke="none" /><rect x="51.0mm" y="0.0mm" width="0.5mm" height="5mm" fill="#E3E59A" stroke="none" /><rect x="51.5mm" y="0.0mm" width="0.5mm" height="5mm" fill="#E3E59D" stroke="none" /><rect x="52.0mm" y="0.0mm" width="0.5mm" height="5mm" fill="#E3E69F" stroke="none" /><rect x="52.5mm" y="0.0mm" width="0.5mm" height="5mm" fill="#E3E7A1" stroke="none" /><rect x="53.0mm" y="0.0mm" width="0.5mm" height="5mm" fill="#E2E7A3" stroke="none" /><rect x="53.5mm" y="0.0mm" width="0.5mm" height="5mm" fill="#E2E8A6" stroke="none" /><rect x="54.0mm" y="0.0mm" width="0.5mm" height="5mm" fill="#E2E8A8" stroke="none" /><rect x="54.5mm" y="0.0mm" width="0.5mm" height="5mm" fill="#E1E9AA" stroke="none" /><rect x="55.0mm" y="0.0mm" width="0.5mm" height="5mm" fill="#E1E9AC" stroke="none" /><rect x="55.5mm" y="0.0mm" width="0.5mm" height="5mm" fill="#E0EAAE" stroke="none" /><rect x="56.0mm" y="0.0mm" width="0.5mm" height="5mm" fill="#E0EAB0" stroke="none" /><rect x="56.5mm" y="0.0mm" width="0.5mm" height="5mm" fill="#DFEAB2" stroke="none" /><rect x="57.0mm" y="0.0mm" width="0.5mm" height="5mm" fill="#DEEAB4" stroke="none" /><rect x="57.5mm" y="0.0mm" width="0.5mm" height="5mm" fill="#DDEBB6" stroke="none" /><rect x="58.0mm" y="0.0mm" width="0.5mm" height="5mm" fill="#DCEBB7" stroke="none" /><rect x="58.5mm" y="0.0mm" width="0.5mm" height="5mm" fill="#DBEBB9" stroke="none" /><rect x="59.0mm" y="0.0mm" width="0.5mm" height="5mm" fill="#DAEBBB" stroke="none" /><rect x="59.5mm" y="0.0mm" width="0.5mm" height="5mm" fill="#D9EBBC" stroke="none" /><rect x="60.0mm" y="0.0mm" width="0.5mm" height="5mm" fill="#D7EBBE" stroke="none" /><rect x="60.5mm" y="0.0mm" width="0.5mm" height="5mm" fill="#D6ECC0" stroke="none" /><rect x="61.0mm" y="0.0mm" width="0.5mm" height="5mm" fill="#D4ECC1" stroke="none" /><rect x="61.5mm" y="0.0mm" width="0.5mm" height="5mm" fill="#D3ECC3" stroke="none" /><rect x="62.0mm" y="0.0mm" width="0.5mm" height="5mm" fill="#D1ECC4" stroke="none" /><rect x="62.5mm" y="0.0mm" width="0.5mm" height="5mm" fill="#D0EBC5" stroke="none" /><rect x="63.0mm" y="0.0mm" width="0.5mm" height="5mm" fill="#CEEBC7" stroke="none" /><rect x="63.5mm" y="0.0mm" width="0.5mm" height="5mm" fill="#CCEBC8" stroke="none" /><rect x="64.0mm" y="0.0mm" width="0.5mm" height="5mm" fill="#CAEBC9" stroke="none" /><rect x="64.5mm" y="0.0mm" width="0.5mm" height="5mm" fill="#C8EBCA" stroke="none" /><rect x="65.0mm" y="0.0mm" width="0.5mm" height="5mm" fill="#C6EBCB" stroke="none" /><rect x="65.5mm" y="0.0mm" width="0.5mm" height="5mm" fill="#C4EACC" stroke="none" /><rect x="66.0mm" y="0.0mm" width="0.5mm" height="5mm" fill="#C2EACD" stroke="none" /><rect x="66.5mm" y="0.0mm" width="0.5mm" height="5mm" fill="#BFEACE" stroke="none" /><rect x="67.0mm" y="0.0mm" width="0.5mm" height="5mm" fill="#BDE9CF" stroke="none" /><rect x="67.5mm" y="0.0mm" width="0.5mm" height="5mm" fill="#BBE9D0" stroke="none" /><rect x="68.0mm" y="0.0mm" width="0.5mm" height="5mm" fill="#B8E8D1" stroke="none" /><rect x="68.5mm" y="0.0mm" width="0.5mm" height="5mm" fill="#B6E8D2" stroke="none" /><rect x="69.0mm" y="0.0mm" width="0.5mm" height="5mm" fill="#B3E7D3" stroke="none" /><rect x="69.5mm" y="0.0mm" width="0.5mm" height="5mm" fill="#B1E6D3" stroke="none" /><rect x="70.0mm" y="0.0mm" width="0.5mm" height="5mm" fill="#AEE6D4" stroke="none" /><rect x="70.5mm" y="0.0mm" width="0.5mm" height="5mm" fill="#ABE5D4" stroke="none" /><rect x="71.0mm" y="0.0mm" width="0.5mm" height="5mm" fill="#A9E4D5" stroke="none" /><rect x="71.5mm" y="0.0mm" width="0.5mm" height="5mm" fill="#A6E3D5" stroke="none" /><rect x="72.0mm" y="0.0mm" width="0.5mm" height="5mm" fill="#A3E3D6" stroke="none" /><rect x="72.5mm" y="0.0mm" width="0.5mm" height="5mm" fill="#A0E2D6" stroke="none" /><rect x="73.0mm" y="0.0mm" width="0.5mm" height="5mm" fill="#9EE1D7" stroke="none" /><rect x="73.5mm" y="0.0mm" width="0.5mm" height="5mm" fill="#9BE0D7" stroke="none" /><rect x="74.0mm" y="0.0mm" width="0.5mm" height="5mm" fill="#98DFD7" stroke="none" /><rect x="74.5mm" y="0.0mm" width="0.5mm" height="5mm" fill="#95DDD7" stroke="none" /><rect x="75.0mm" y="0.0mm" width="0.5mm" height="5mm" fill="#92DCD7" stroke="none" /><rect x="75.5mm" y="0.0mm" width="0.5mm" height="5mm" fill="#8FDBD8" stroke="none" /><rect x="76.0mm" y="0.0mm" width="0.5mm" height="5mm" fill="#8DDAD8" stroke="none" /><rect x="76.5mm" y="0.0mm" width="0.5mm" height="5mm" fill="#8AD8D8" stroke="none" /><rect x="77.0mm" y="0.0mm" width="0.5mm" height="5mm" fill="#87D7D8" stroke="none" /><rect x="77.5mm" y="0.0mm" width="0.5mm" height="5mm" fill="#84D6D8" stroke="none" /><rect x="78.0mm" y="0.0mm" width="0.5mm" height="5mm" fill="#82D4D8" stroke="none" /><rect x="78.5mm" y="0.0mm" width="0.5mm" height="5mm" fill="#7FD3D7" stroke="none" /><rect x="79.0mm" y="0.0mm" width="0.5mm" height="5mm" fill="#7CD1D7" stroke="none" /><rect x="79.5mm" y="0.0mm" width="0.5mm" height="5mm" fill="#7AD0D7" stroke="none" /><rect x="80.0mm" y="0.0mm" width="0.5mm" height="5mm" fill="#77CED7" stroke="none" /><rect x="80.5mm" y="0.0mm" width="0.5mm" height="5mm" fill="#75CCD6" stroke="none" /><rect x="81.0mm" y="0.0mm" width="0.5mm" height="5mm" fill="#72CBD6" stroke="none" /><rect x="81.5mm" y="0.0mm" width="0.5mm" height="5mm" fill="#70C9D6" stroke="none" /><rect x="82.0mm" y="0.0mm" width="0.5mm" height="5mm" fill="#6EC7D5" stroke="none" /><rect x="82.5mm" y="0.0mm" width="0.5mm" height="5mm" fill="#6BC6D5" stroke="none" /><rect x="83.0mm" y="0.0mm" width="0.5mm" height="5mm" fill="#69C4D5" stroke="none" /><rect x="83.5mm" y="0.0mm" width="0.5mm" height="5mm" fill="#67C2D4" stroke="none" /><rect x="84.0mm" y="0.0mm" width="0.5mm" height="5mm" fill="#65C1D4" stroke="none" /><rect x="84.5mm" y="0.0mm" width="0.5mm" height="5mm" fill="#63BFD3" stroke="none" /><rect x="85.0mm" y="0.0mm" width="0.5mm" height="5mm" fill="#61BDD3" stroke="none" /><rect x="85.5mm" y="0.0mm" width="0.5mm" height="5mm" fill="#60BBD2" stroke="none" /><rect x="86.0mm" y="0.0mm" width="0.5mm" height="5mm" fill="#5EBAD1" stroke="none" /><rect x="86.5mm" y="0.0mm" width="0.5mm" height="5mm" fill="#5CB8D1" stroke="none" /><rect x="87.0mm" y="0.0mm" width="0.5mm" height="5mm" fill="#5BB6D0" stroke="none" /><rect x="87.5mm" y="0.0mm" width="0.5mm" height="5mm" fill="#59B4D0" stroke="none" /><rect x="88.0mm" y="0.0mm" width="0.5mm" height="5mm" fill="#58B2CF" stroke="none" /><rect x="88.5mm" y="0.0mm" width="0.5mm" height="5mm" fill="#57B1CE" stroke="none" /><rect x="89.0mm" y="0.0mm" width="0.5mm" height="5mm" fill="#55AFCE" stroke="none" /><rect x="89.5mm" y="0.0mm" width="0.5mm" height="5mm" fill="#54ADCD" stroke="none" /><rect x="90.0mm" y="0.0mm" width="0.5mm" height="5mm" fill="#53ABCC" stroke="none" /><rect x="90.5mm" y="0.0mm" width="0.5mm" height="5mm" fill="#52AACC" stroke="none" /><rect x="91.0mm" y="0.0mm" width="0.5mm" height="5mm" fill="#50A8CB" stroke="none" /><rect x="91.5mm" y="0.0mm" width="0.5mm" height="5mm" fill="#4FA6CA" stroke="none" /><rect x="92.0mm" y="0.0mm" width="0.5mm" height="5mm" fill="#4EA4C9" stroke="none" /><rect x="92.5mm" y="0.0mm" width="0.5mm" height="5mm" fill="#4DA3C9" stroke="none" /><rect x="93.0mm" y="0.0mm" width="0.5mm" height="5mm" fill="#4CA1C8" stroke="none" /><rect x="93.5mm" y="0.0mm" width="0.5mm" height="5mm" fill="#4B9FC7" stroke="none" /><rect x="94.0mm" y="0.0mm" width="0.5mm" height="5mm" fill="#4A9DC7" stroke="none" /><rect x="94.5mm" y="0.0mm" width="0.5mm" height="5mm" fill="#4A9CC6" stroke="none" /><rect x="95.0mm" y="0.0mm" width="0.5mm" height="5mm" fill="#499AC5" stroke="none" /><rect x="95.5mm" y="0.0mm" width="0.5mm" height="5mm" fill="#4898C5" stroke="none" /><rect x="96.0mm" y="0.0mm" width="0.5mm" height="5mm" fill="#4796C4" stroke="none" /><rect x="96.5mm" y="0.0mm" width="0.5mm" height="5mm" fill="#4695C3" stroke="none" /><rect x="97.0mm" y="0.0mm" width="0.5mm" height="5mm" fill="#4593C2" stroke="none" /><rect x="97.5mm" y="0.0mm" width="0.5mm" height="5mm" fill="#4591C2" stroke="none" /><rect x="98.0mm" y="0.0mm" width="0.5mm" height="5mm" fill="#4490C1" stroke="none" /><rect x="98.5mm" y="0.0mm" width="0.5mm" height="5mm" fill="#438EC0" stroke="none" /><rect x="99.0mm" y="0.0mm" width="0.5mm" height="5mm" fill="#428CBF" stroke="none" /><rect x="99.5mm" y="0.0mm" width="0.5mm" height="5mm" fill="#428ABF" stroke="none" /><rect x="100.0mm" y="0.0mm" width="0.5mm" height="5mm" fill="#4189BE" stroke="none" /><rect x="100.5mm" y="0.0mm" width="0.5mm" height="5mm" fill="#4087BD" stroke="none" /><rect x="101.0mm" y="0.0mm" width="0.5mm" height="5mm" fill="#4085BD" stroke="none" /><rect x="101.5mm" y="0.0mm" width="0.5mm" height="5mm" fill="#3F84BC" stroke="none" /><rect x="102.0mm" y="0.0mm" width="0.5mm" height="5mm" fill="#3E82BB" stroke="none" /><rect x="102.5mm" y="0.0mm" width="0.5mm" height="5mm" fill="#3D81BB" stroke="none" /><rect x="103.0mm" y="0.0mm" width="0.5mm" height="5mm" fill="#3D7FBA" stroke="none" /><rect x="103.5mm" y="0.0mm" width="0.5mm" height="5mm" fill="#3C7DB9" stroke="none" /><rect x="104.0mm" y="0.0mm" width="0.5mm" height="5mm" fill="#3B7CB8" stroke="none" /><rect x="104.5mm" y="0.0mm" width="0.5mm" height="5mm" fill="#3B7AB8" stroke="none" /><rect x="105.0mm" y="0.0mm" width="0.5mm" height="5mm" fill="#3A78B7" stroke="none" /><rect x="105.5mm" y="0.0mm" width="0.5mm" height="5mm" fill="#3977B6" stroke="none" /><rect x="106.0mm" y="0.0mm" width="0.5mm" height="5mm" fill="#3975B6" stroke="none" /><rect x="106.5mm" y="0.0mm" width="0.5mm" height="5mm" fill="#3874B5" stroke="none" /><rect x="107.0mm" y="0.0mm" width="0.5mm" height="5mm" fill="#3872B4" stroke="none" /><rect x="107.5mm" y="0.0mm" width="0.5mm" height="5mm" fill="#3770B4" stroke="none" /><rect x="108.0mm" y="0.0mm" width="0.5mm" height="5mm" fill="#366FB3" stroke="none" /><rect x="108.5mm" y="0.0mm" width="0.5mm" height="5mm" fill="#366DB2" stroke="none" /><rect x="109.0mm" y="0.0mm" width="0.5mm" height="5mm" fill="#356CB1" stroke="none" /><rect x="109.5mm" y="0.0mm" width="0.5mm" height="5mm" fill="#346AB1" stroke="none" /><rect x="110.0mm" y="0.0mm" width="0.5mm" height="5mm" fill="#3468B0" stroke="none" /><rect x="110.5mm" y="0.0mm" width="0.5mm" height="5mm" fill="#3367AF" stroke="none" /><rect x="111.0mm" y="0.0mm" width="0.5mm" height="5mm" fill="#3265AF" stroke="none" /><rect x="111.5mm" y="0.0mm" width="0.5mm" height="5mm" fill="#3264AE" stroke="none" /><rect x="112.0mm" y="0.0mm" width="0.5mm" height="5mm" fill="#3162AD" stroke="none" /><rect x="112.5mm" y="0.0mm" width="0.5mm" height="5mm" fill="#3061AD" stroke="none" /><rect x="113.0mm" y="0.0mm" width="0.5mm" height="5mm" fill="#305FAC" stroke="none" /><rect x="113.5mm" y="0.0mm" width="0.5mm" height="5mm" fill="#2F5EAB" stroke="none" /><rect x="114.0mm" y="0.0mm" width="0.5mm" height="5mm" fill="#2F5CAB" stroke="none" /><rect x="114.5mm" y="0.0mm" width="0.5mm" height="5mm" fill="#2E5AAA" stroke="none" /><rect x="115.0mm" y="0.0mm" width="0.5mm" height="5mm" fill="#2D59A9" stroke="none" /><rect x="115.5mm" y="0.0mm" width="0.5mm" height="5mm" fill="#2D57A9" stroke="none" /><rect x="116.0mm" y="0.0mm" width="0.5mm" height="5mm" fill="#2C56A8" stroke="none" /><rect x="116.5mm" y="0.0mm" width="0.5mm" height="5mm" fill="#2B54A7" stroke="none" /><rect x="117.0mm" y="0.0mm" width="0.5mm" height="5mm" fill="#2B53A7" stroke="none" /><rect x="117.5mm" y="0.0mm" width="0.5mm" height="5mm" fill="#2A51A6" stroke="none" /><rect x="118.0mm" y="0.0mm" width="0.5mm" height="5mm" fill="#2950A5" stroke="none" /><rect x="118.5mm" y="0.0mm" width="0.5mm" height="5mm" fill="#294EA5" stroke="none" /><rect x="119.0mm" y="0.0mm" width="0.5mm" height="5mm" fill="#284DA4" stroke="none" /><rect x="119.5mm" y="0.0mm" width="0.5mm" height="5mm" fill="#274BA3" stroke="none" /><rect x="120.0mm" y="0.0mm" width="0.5mm" height="5mm" fill="#274AA3" stroke="none" /><rect x="120.5mm" y="0.0mm" width="0.5mm" height="5mm" fill="#2648A2" stroke="none" /><rect x="121.0mm" y="0.0mm" width="0.5mm" height="5mm" fill="#2547A1" stroke="none" /><rect x="121.5mm" y="0.0mm" width="0.5mm" height="5mm" fill="#2545A1" stroke="none" /><rect x="122.0mm" y="0.0mm" width="0.5mm" height="5mm" fill="#2444A0" stroke="none" /><rect x="122.5mm" y="0.0mm" width="0.5mm" height="5mm" fill="#2342A0" stroke="none" /><rect x="123.0mm" y="0.0mm" width="0.5mm" height="5mm" fill="#22419F" stroke="none" /><rect x="123.5mm" y="0.0mm" width="0.5mm" height="5mm" fill="#223F9E" stroke="none" /><rect x="124.0mm" y="0.0mm" width="0.5mm" height="5mm" fill="#213E9E" stroke="none" /><rect x="124.5mm" y="0.0mm" width="0.5mm" height="5mm" fill="#203C9D" stroke="none" /><rect x="125.0mm" y="0.0mm" width="0.5mm" height="5mm" fill="#1F3B9C" stroke="none" /><rect x="125.5mm" y="0.0mm" width="0.5mm" height="5mm" fill="#1E399C" stroke="none" /><rect x="126.0mm" y="0.0mm" width="0.5mm" height="5mm" fill="#1D389B" stroke="none" /><rect x="126.5mm" y="0.0mm" width="0.5mm" height="5mm" fill="#1C369A" stroke="none" /><rect x="127.0mm" y="0.0mm" width="0.5mm" height="5mm" fill="#1B359A" stroke="none" /><rect x="127.5mm" y="0.0mm" width="0.5mm" height="5mm" fill="#1A3399" stroke="none" /></svg>